<svg xmlns="http://www.w3.org/2000/svg" viewBox="0 11.579999923706055 207.0500030517578 37.349998474121094" data-asc="0.96875"><g fill="#000000"><g fill="#000000" transform="translate(0, 0)"><path d="M7.69 12.07L7.69 48.44L0 48.44L0 12.07L7.69 12.07ZM44.44 12.07L44.44 48.44L37.80 48.44L21.98 25.55L21.72 25.55L21.72 48.44L14.03 48.44L14.03 12.07L20.77 12.07L36.47 34.94L36.79 34.94L36.79 12.07L44.44 12.07ZM49.40 18.41L49.40 12.07L79.26 12.07L79.26 18.41L68.13 18.41L68.13 48.44L60.53 48.44L60.53 18.41L49.40 18.41ZM84.20 48.44L84.20 12.07L98.54 12.07Q102.66 12.07 105.58 13.54Q108.50 15.00 110.04 17.68Q111.58 20.35 111.58 23.95Q111.58 27.57 110.01 30.18Q108.45 32.78 105.50 34.16Q102.54 35.55 98.35 35.55L88.74 35.55L88.74 29.37L97.11 29.37Q99.31 29.37 100.76 28.76Q102.22 28.16 102.94 26.95Q103.66 25.75 103.66 23.95Q103.66 22.14 102.94 20.90Q102.22 19.66 100.75 19.01Q99.29 18.36 97.07 18.36L91.89 18.36L91.89 48.44L84.20 48.44M103.84 31.89L112.87 48.44L104.39 48.44L95.54 31.89L103.84 31.89ZM124.70 12.07L124.70 48.44L117.01 48.44L117.01 12.07L124.70 12.07ZM131.04 48.44L131.04 12.07L138.73 12.07L138.73 42.10L154.31 42.10L154.31 48.44L131.04 48.44ZM192.83 30.26Q192.83 36.20 190.58 40.38Q188.33 44.55 184.47 46.74Q180.61 48.93 175.80 48.93Q170.95 48.93 167.10 46.73Q163.25 44.53 161.01 40.36Q158.77 36.19 158.77 30.26Q158.77 24.31 161.01 20.13Q163.25 15.96 167.10 13.77Q170.95 11.58 175.80 11.58Q180.61 11.58 184.47 13.77Q188.33 15.96 190.58 20.13Q192.83 24.31 192.83 30.26M185.03 30.26Q185.03 26.40 183.89 23.76Q182.74 21.11 180.66 19.74Q178.59 18.38 175.80 18.38Q173.01 18.38 170.93 19.74Q168.86 21.11 167.71 23.76Q166.57 26.40 166.57 30.26Q166.57 34.11 167.71 36.75Q168.86 39.40 170.93 40.77Q173.01 42.13 175.80 42.13Q178.59 42.13 180.66 40.77Q182.74 39.40 183.89 36.75Q185.03 34.11 185.03 30.26ZM202.79 48.90Q201.03 48.90 199.78 47.65Q198.53 46.40 198.53 44.64Q198.53 42.90 199.78 41.65Q201.03 40.41 202.79 40.41Q204.49 40.41 205.77 41.65Q207.05 42.90 207.05 44.64Q207.05 45.81 206.45 46.78Q205.86 47.75 204.90 48.32Q203.94 48.90 202.79 48.90Z"/></g></g></svg>